<svg width="70" height="70" viewBox="0 0 70 70" fill="none" xmlns="http://www.w3.org/2000/svg">
<g filter="url(#filter0_d_233_677)">
<circle cx="34.7999" cy="21.9406" r="16.7999" fill="#1A202C"/>
</g>
<path d="M34.8 5.14062C25.5215 5.14062 18 12.6621 18 21.9406C18 31.2191 25.5215 38.7406 34.8 38.7406C44.0785 38.7406 51.6 31.2191 51.6 21.9406C51.6 12.6621 44.0785 5.14062 34.8 5.14062ZM38.7795 16.7501H36.2543C35.955 16.7501 35.6225 17.1439 35.6225 17.6671V19.4906H38.7813L38.3035 22.0911H35.6225V29.8979H32.6423V22.0911H29.9385V19.4906H32.6423V17.9611C32.6423 15.7666 34.1648 13.9834 36.2543 13.9834H38.7795V16.7501Z" fill="white"/>
<defs>
<filter id="filter0_d_233_677" x="0" y="0.140625" width="69.6001" height="69.5999" filterUnits="userSpaceOnUse" color-interpolation-filters="sRGB">
<feFlood flood-opacity="0" result="BackgroundImageFix"/>
<feColorMatrix in="SourceAlpha" type="matrix" values="0 0 0 0 0 0 0 0 0 0 0 0 0 0 0 0 0 0 127 0" result="hardAlpha"/>
<feOffset dy="13"/>
<feGaussianBlur stdDeviation="9"/>
<feColorMatrix type="matrix" values="0 0 0 0 0.0658854 0 0 0 0 0.0730469 0 0 0 0 0.1375 0 0 0 0.08 0"/>
<feBlend mode="normal" in2="BackgroundImageFix" result="effect1_dropShadow_233_677"/>
<feBlend mode="normal" in="SourceGraphic" in2="effect1_dropShadow_233_677" result="shape"/>
</filter>
</defs>
</svg>
