<svg width="70" height="70" viewBox="0 0 70 70" fill="none" xmlns="http://www.w3.org/2000/svg">
<g filter="url(#filter0_d_233_683)">
<circle cx="35.0001" cy="21.9406" r="16.7999" fill="#1A202C"/>
</g>
<path d="M40.2502 21.9406C40.2502 23.333 39.6971 24.6684 38.7125 25.6529C37.7279 26.6375 36.3926 27.1906 35.0002 27.1906C33.6078 27.1906 32.2725 26.6375 31.2879 25.6529C30.3033 24.6684 29.7502 23.333 29.7502 21.9406C29.7502 21.6414 29.7817 21.3491 29.8359 21.0656H28.0002V28.0604C28.0002 28.5469 28.3939 28.9406 28.8804 28.9406H41.1217C41.3549 28.9402 41.5783 28.8472 41.743 28.6822C41.9077 28.5172 42.0002 28.2935 42.0002 28.0604V21.0656H40.1644C40.2187 21.3491 40.2502 21.6414 40.2502 21.9406ZM35.0002 25.4406C35.4599 25.4405 35.9152 25.3498 36.3399 25.1738C36.7646 24.9978 37.1504 24.7398 37.4754 24.4146C37.8004 24.0895 38.0582 23.7035 38.234 23.2787C38.4099 22.8539 38.5003 22.3986 38.5002 21.9389C38.5001 21.4791 38.4094 21.0239 38.2334 20.5992C38.0573 20.1745 37.7994 19.7886 37.4742 19.4636C37.149 19.1386 36.763 18.8809 36.3382 18.705C35.9135 18.5292 35.4582 18.4388 34.9984 18.4389C34.07 18.4391 33.1796 18.8082 32.5232 19.4649C31.8668 20.1216 31.4982 21.0121 31.4984 21.9406C31.4987 22.8691 31.8677 23.7595 32.5244 24.4159C33.1812 25.0722 34.0717 25.4409 35.0002 25.4406ZM39.2002 18.2656H41.2984C41.4378 18.2656 41.5716 18.2104 41.6703 18.112C41.769 18.0136 41.8247 17.88 41.8252 17.7406V15.6424C41.8252 15.5027 41.7697 15.3687 41.6709 15.2699C41.5721 15.1711 41.4382 15.1156 41.2984 15.1156H39.2002C39.0605 15.1156 38.9265 15.1711 38.8277 15.2699C38.7289 15.3687 38.6734 15.5027 38.6734 15.6424V17.7406C38.6752 18.0294 38.9114 18.2656 39.2002 18.2656ZM35.0002 5.14062C30.5446 5.14063 26.2714 6.91062 23.1208 10.0612C19.9702 13.2118 18.2002 17.485 18.2002 21.9406C18.2002 26.3963 19.9702 30.6694 23.1208 33.82C26.2714 36.9706 30.5446 38.7406 35.0002 38.7406C37.2064 38.7406 39.391 38.3061 41.4293 37.4618C43.4676 36.6175 45.3196 35.38 46.8796 33.82C48.4396 32.26 49.6771 30.408 50.5214 28.3697C51.3657 26.3314 51.8002 24.1468 51.8002 21.9406C51.8002 19.7344 51.3657 17.5498 50.5214 15.5115C49.6771 13.4733 48.4396 11.6213 46.8796 10.0612C45.3196 8.50121 43.4676 7.26373 41.4293 6.41945C39.391 5.57517 37.2064 5.14063 35.0002 5.14062ZM43.7502 28.7464C43.7502 29.8156 42.8752 30.6906 41.8059 30.6906H28.1944C27.1252 30.6906 26.2502 29.8156 26.2502 28.7464V15.1349C26.2502 14.0656 27.1252 13.1906 28.1944 13.1906H41.8059C42.8752 13.1906 43.7502 14.0656 43.7502 15.1349V28.7464Z" fill="white"/>
<defs>
<filter id="filter0_d_233_683" x="0.200195" y="0.140625" width="69.6001" height="69.5999" filterUnits="userSpaceOnUse" color-interpolation-filters="sRGB">
<feFlood flood-opacity="0" result="BackgroundImageFix"/>
<feColorMatrix in="SourceAlpha" type="matrix" values="0 0 0 0 0 0 0 0 0 0 0 0 0 0 0 0 0 0 127 0" result="hardAlpha"/>
<feOffset dy="13"/>
<feGaussianBlur stdDeviation="9"/>
<feColorMatrix type="matrix" values="0 0 0 0 0.0658854 0 0 0 0 0.0730469 0 0 0 0 0.1375 0 0 0 0.08 0"/>
<feBlend mode="normal" in2="BackgroundImageFix" result="effect1_dropShadow_233_683"/>
<feBlend mode="normal" in="SourceGraphic" in2="effect1_dropShadow_233_683" result="shape"/>
</filter>
</defs>
</svg>
