<svg width="71" height="70" viewBox="0 0 71 70" fill="none" xmlns="http://www.w3.org/2000/svg">
<g filter="url(#filter0_d_233_680)">
<circle cx="35.4" cy="21.9406" r="16.7999" fill="#1A202C"/>
</g>
<path d="M35.4001 5.14062C26.1216 5.14062 18.6001 12.6621 18.6001 21.9406C18.6001 31.2191 26.1216 38.7406 35.4001 38.7406C44.6786 38.7406 52.2001 31.2191 52.2001 21.9406C52.2001 12.6621 44.6786 5.14062 35.4001 5.14062ZM42.2339 18.9026C42.2409 19.0461 42.2426 19.1896 42.2426 19.3296C42.2426 23.7046 38.9159 28.7464 32.8294 28.7464C31.0309 28.7494 29.2698 28.2328 27.7578 27.2589C28.0151 27.2904 28.2793 27.3026 28.5471 27.3026C30.0976 27.3026 31.5239 26.7759 32.6561 25.8869C31.9661 25.8733 31.2975 25.6448 30.7435 25.2333C30.1896 24.8217 29.7778 24.2476 29.5656 23.5909C30.0611 23.6851 30.5716 23.6654 31.0583 23.5331C30.3094 23.3817 29.6359 22.9759 29.1521 22.3845C28.6682 21.7932 28.4038 21.0527 28.4036 20.2886V20.2484C28.8498 20.4951 29.3608 20.6456 29.9033 20.6631C29.2012 20.1958 28.7042 19.4778 28.5139 18.6561C28.3236 17.8344 28.4544 16.9711 28.8796 16.2426C29.7108 17.2646 30.7473 18.1007 31.9221 18.6967C33.0969 19.2927 34.3837 19.6353 35.6994 19.7024C35.5321 18.9924 35.6041 18.2471 35.9041 17.5823C36.2042 16.9174 36.7154 16.3704 37.3585 16.0261C38.0015 15.6818 38.7403 15.5596 39.4599 15.6786C40.1796 15.7975 40.8397 16.1508 41.3379 16.6836C42.0784 16.5371 42.7886 16.2655 43.4379 15.8804C43.191 16.6471 42.6743 17.2982 41.9836 17.7126C42.6396 17.6336 43.2801 17.4573 43.8841 17.1894C43.4405 17.8542 42.8816 18.4344 42.2339 18.9026Z" fill="white"/>
<defs>
<filter id="filter0_d_233_680" x="0.600098" y="0.140625" width="69.6001" height="69.5999" filterUnits="userSpaceOnUse" color-interpolation-filters="sRGB">
<feFlood flood-opacity="0" result="BackgroundImageFix"/>
<feColorMatrix in="SourceAlpha" type="matrix" values="0 0 0 0 0 0 0 0 0 0 0 0 0 0 0 0 0 0 127 0" result="hardAlpha"/>
<feOffset dy="13"/>
<feGaussianBlur stdDeviation="9"/>
<feColorMatrix type="matrix" values="0 0 0 0 0.0658854 0 0 0 0 0.0730469 0 0 0 0 0.1375 0 0 0 0.08 0"/>
<feBlend mode="normal" in2="BackgroundImageFix" result="effect1_dropShadow_233_680"/>
<feBlend mode="normal" in="SourceGraphic" in2="effect1_dropShadow_233_680" result="shape"/>
</filter>
</defs>
</svg>
